<?xml version="1.0" encoding="utf-8"?>
<!-- Generator: Adobe Illustrator 20.1.0, SVG Export Plug-In . SVG Version: 6.00 Build 0)  -->
<svg version="1.1" id="Layer_1" xmlns="http://www.w3.org/2000/svg" xmlns:xlink="http://www.w3.org/1999/xlink" x="0px" y="0px"
	 viewBox="0 0 350 350" style="enable-background:new 0 0 350 350;" xml:space="preserve" opacity="0.15">
<style type="text/css">
	.st0{fill:none;stroke:#010101;stroke-miterlimit:10;}
	.st1{fill:none;stroke:#010101;stroke-width:0.75;stroke-miterlimit:10;}
</style>
<path class="st0" d="M300,25.1c-1.8-0.6-5.8,3.2-5.8,3.2s0.1,0.1,0.2,0.1c-5.6-0.4-11.2,1.7-15.1,6.3c-3.8,4.5-5,10.4-3.5,15.9
	c-0.1-0.1-0.1-0.1-0.1-0.1s-3,4.7-2.1,6.3c7.9,14.5,29.5,21.2,31.7,19.8c0.1-0.1,0.1-0.2,0.2-0.2c0.7-0.8-0.7-2.9-3.4-5.5
	c1.6-4.1,3.9-7.9,6.8-11.4c2.9-3.4,6.2-6.3,10-8.7c3,2.1,5.2,3.2,5.9,2.3c0.1-0.1,0.1-0.2,0.2-0.2C326,50.4,315.6,30.4,300,25.1z
	 M278,59.7c-1.5-1.2-1.6-3.3-0.4-4.8c1.2-1.5,3.3-1.6,4.8-0.4c1.5,1.2,1.6,3.3,0.4,4.8C281.5,60.7,279.4,60.9,278,59.7z M293.8,59.5
	l-1.8,2.1l2.1,1.8l-1.7,2l-2.1-1.8l-1.8,2.1l-2.1-1.7l1.8-2.1l-2.1-1.8l1.7-2.1l2.1,1.8l1.8-2.1L293.8,59.5L293.8,59.5z M305.5,59.3
	c-0.7-1-1.3-2.9-1.9-4.6c1.7,0.4,3.7,0.5,4.8,1.1C307.7,57.1,306.7,58.3,305.5,59.3z M296.2,42.2c0.5,0.4,0.5,1.1,0.1,1.5l-5.1,6.1
	c-0.4,0.5-1.1,0.5-1.5,0.1l-6.2-5.2c-0.5-0.4-0.5-1.1-0.1-1.5l5.1-6.1c0.4-0.5,1.1-0.5,1.5-0.1L296.2,42.2z M302.7,39.4
	c-0.6,0.8-1.8,0.9-2.5,0.2s-0.8-1.7-0.1-2.5s1.8-0.9,2.5-0.3C303.2,37.6,303.3,38.7,302.7,39.4z M308.6,38.9
	c-0.6,0.8-1.7,0.8-2.5,0.1c-0.8-0.6-0.8-1.7-0.2-2.4c0.6-0.8,1.8-0.9,2.5-0.3C309.1,37.1,309.2,38.2,308.6,38.9z M302.1,33.5
	c-0.6,0.8-1.7,0.8-2.5,0.1s-0.9-1.8-0.3-2.5c0.6-0.8,1.8-0.9,2.5-0.2C302.7,31.6,302.7,32.8,302.1,33.5z M308.1,33
	c-0.6,0.8-1.8,0.9-2.5,0.2s-0.8-1.7-0.1-2.5c0.6-0.8,1.8-0.9,2.5-0.3C308.5,31.2,308.6,32.3,308.1,33z"/>
<path class="st0" d="M73.8,47.9c-1.4-0.2-2.8-0.3-4.3,0.2c-0.3,0-0.6,0.2-0.8,0.3c-0.6-0.7-2.1-0.6-3.4,0.2c-1.3,0.8-2.2,2-2,2.8
	C55.7,56,49.8,63.2,46.4,71.5c-0.9-0.1-1.9,0.9-2.4,2.4c-0.5,1.5-0.3,3,0.4,3.4c-0.1,0.2-0.1,0.6-0.1,0.8c-0.1,0.9,0,1.9,0.1,2.8
	c0.2,2.7,3.8,7.6,9.2,12.1c6.5,5.5,13.2,8.4,14.9,6.4c1.7-2-2.3-8-8.8-13.5l0.1,0c1.6,0.1,2.7,0.8,4.7,1.2c3.3,0.6,6.4-1.7,7-4.9
	c0.6-3.3-1.7-6.4-4.9-6.9c-1.9-0.3-2.8,0.4-4.5,0c1.8-3.6,4.4-6.6,7.5-9c0.6,1.6,0.1,2.5,0.7,4.4c1.1,3.2,4.5,4.7,7.6,3.7
	c3.2-1.1,4.7-4.5,3.6-7.7c-0.7-1.9-1.6-2.9-2-4.4l0,0c6.5,5.5,13.1,8.3,14.8,6.3c1.7-2-2.3-8-8.9-13.6
	C81.2,51.1,76.8,48.5,73.8,47.9z M55.6,81.7c-1.3,1.6-3.7,1.7-5.2,0.5s-1.7-3.7-0.5-5.2s3.7-1.7,5.2-0.5S57,80.1,55.6,81.7z
	 M67.1,77.7l1.7,1.4l-1.5,1.8l1.8,1.5L67.6,84l-1.8-1.5l-1.5,1.8l-1.7-1.4l1.5-1.8l-1.8-1.5l1.4-1.7l1.8,1.5L67.1,77.7z M63.8,68.9
	c-0.4,0.5-1.3,0.6-1.8,0.2s-0.6-1.3-0.2-1.8c0.4-0.5,1.3-0.6,1.8-0.2C64.1,67.5,64.2,68.4,63.8,68.9z M69.2,61.1
	c0.6-0.8,1.8-0.9,2.5-0.2s0.9,1.8,0.2,2.5c-0.6,0.8-1.8,0.9-2.5,0.2S68.6,61.9,69.2,61.1z M78.9,71.3c-1.3,1.5-3.6,1.8-5.2,0.5
	c-1.5-1.3-1.8-3.6-0.5-5.2c1.3-1.5,3.6-1.8,5.2-0.5C80.1,67.5,80.3,69.7,78.9,71.3z M66.5,57L66.5,57c-0.7-0.1-1.3-0.8-1.1-1.6
	c0.2-1.2,0.7-2.2,1.4-3.1c0.5-0.6,1.4-0.6,1.9-0.1l0,0c0.5,0.5,0.5,1.2,0.1,1.5c-0.6,0.7-0.9,1.4-1.1,2.2C67.6,56.6,67.1,57,66.5,57
	z M74.1,58.1c-1,1.1-2.7,1.3-3.8,0.3c-1.1-1-1.3-2.7-0.3-3.8c1-1.1,2.7-1.3,3.8-0.3C74.9,55.3,75.1,57,74.1,58.1z M76.8,51.4
	c0.5,0.6,0.5,1.4,0,1.9l0,0c-0.5,0.5-1.2,0.4-1.6,0c-0.5-0.6-1.4-1-2.2-1.3c-0.5-0.2-1-0.7-0.8-1.3l0,0c0.2-0.7,0.9-1.2,1.6-1
	C74.9,50,75.9,50.5,76.8,51.4z"/>
<path class="st0" d="M184.3,194.8c-7.7,9.2-14.5,23-5.5,30.1c7.3,5.9,16.8,4.3,18.7,0.4c1-1.9,0.2-4.4-1.8-7
	c-0.3-1.8,0.1-4.2,1.4-6.7c1.9-3.1,3.7-5.3,6-7.2c2.2-1.7,4.5-2.5,6.3-2.5c2.8,1.5,5.4,1.8,7.1,0.5c3.5-2.6,3.4-12.2-3.7-18.3
	C204.2,176.5,192,185.5,184.3,194.8z M188,217.5c-1.8,2.1-5,2.4-7.2,0.6c-2.1-1.8-2.4-5-0.6-7.2c1.8-2.1,5-2.4,7.2-0.6
	C189.5,212.2,189.9,215.3,188,217.5z M194.5,191.4l1.2-3.9c0.1-0.2,0.3-0.3,0.5-0.3c0.2,0.1,0.3,0.3,0.3,0.5l-1.2,3.9
	c-0.1,0.2-0.3,0.3-0.5,0.3C194.6,191.7,194.3,191.5,194.5,191.4z M204.1,198.9c-0.8,1-2.2,1.1-3.2,0.3c-1-0.8-1.1-2.2-0.3-3.2
	c0.8-1,2.2-1.1,3.2-0.3C204.7,196.4,204.9,197.9,204.1,198.9z M205.3,192.9c-0.8,1-2.2,1.1-3.2,0.3c-1-0.8-1.1-2.2-0.3-3.2
	c0.8-1,2.2-1.1,3.2-0.3C205.9,190.4,206.1,192,205.3,192.9z M207,187.6c-0.8,1-2.2,1.1-3.2,0.3c-1-0.8-1.1-2.2-0.3-3.2
	c0.8-1,2.2-1.1,3.2-0.3C207.8,185.1,207.9,186.6,207,187.6z"/>
<path class="st0" d="M62.1,277.3c-2.5-2.1-5.8-2.6-8.7-1.8c-0.3-0.4-0.8-0.6-1.3-0.5c-3.4,0.8-6.1,2.7-7.6,5.6c0,0,0,0-0.1,0.1
	c-2.7-0.5-5.6,0.6-7.5,2.9l-6.1,7.3c-1.9,2.2-2.3,5.2-1.5,7.9c0,0,0,0-0.1,0.1c-2.7,2.1-4,5-4.2,8.5c0,0.5,0.3,1,0.7,1.2
	c-0.3,3,0.8,6.2,3.3,8.2c0.9,0.8,1.9,1.3,2.9,1.7c1.1,1.5,2.5,2.9,4.2,4.3c5.4,4.5,11.1,6.5,12.9,4.3c1.7-2-0.9-7-5.9-11.5l0,0
	c3.1-4.3,5.2-4.1,5.2-4.1c9.6,4.9,20.2,9.4,22.4,6.7c2.2-2.6-4.1-12.3-10.5-20.9c0,0-0.5-2,3.2-5.8l0,0c5.2,4.1,10.6,5.9,12.3,3.8
	c1.7-2.1-1.2-7.5-6.5-12c-1.7-1.4-3.3-2.5-5-3.4C63.7,278.9,62.9,278,62.1,277.3z M39.5,307.9l-2,2.4l2.4,2l-1.9,2.3l-2.4-2l-2,2.4
	l-2.3-1.9l2-2.4l-2.4-2l1.9-2.3l2.4,2l2-2.4L39.5,307.9z M46.2,297.5c0.7-0.8,2-1,2.8-0.2c0.8,0.7,1,2,0.2,2.8c-0.7,0.8-2,1-2.8,0.2
	C45.6,299.7,45.5,298.4,46.2,297.5z M58.3,307.6c-0.9,1.1-2.4,1.2-3.5,0.3c-1.1-0.9-1.2-2.4-0.3-3.5c0.9-1.1,2.4-1.2,3.5-0.3
	C59,305,59.2,306.6,58.3,307.6z M55.6,292.2c-0.7,0.8-2,1-2.8,0.2c-0.8-0.7-1-2-0.2-2.8s2-1,2.8-0.2
	C56.1,290.1,56.3,291.3,55.6,292.2z M60.9,291.9c-0.7,0.8-2,1-2.8,0.2c-0.8-0.7-1-2-0.2-2.8s2-1,2.8-0.2
	C61.5,289.8,61.6,291,60.9,291.9z M55.6,286.4c-0.5,0.6-1.4,0.7-2,0.2c-0.6-0.5-0.7-1.4-0.2-2c0.5-0.6,1.4-0.7,2-0.2
	C56.1,284.8,56.1,285.8,55.6,286.4z M60.5,285.9c-0.5,0.6-1.4,0.7-2,0.2c-0.6-0.5-0.7-1.4-0.2-2c0.5-0.6,1.4-0.7,2-0.2
	C60.9,284.4,60.9,285.3,60.5,285.9z M55.3,281.5c-0.5,0.6-1.4,0.7-2,0.2c-0.6-0.5-0.7-1.4-0.2-2c0.5-0.6,1.4-0.7,2-0.2
	C55.6,280,55.7,281,55.3,281.5z M60,281.1c-0.5,0.6-1.4,0.7-2,0.2c-0.6-0.5-0.7-1.4-0.2-2c0.5-0.6,1.4-0.7,2-0.2
	C60.5,279.6,60.6,280.5,60,281.1z"/>
<g>
	<path class="st1" d="M197.3,90.5"/>
	<g>
		<ellipse transform="matrix(0.6428 -0.766 0.766 0.6428 9.25 183.6667)" class="st1" cx="201.6" cy="81.9" rx="2.2" ry="2.2"/>
		<ellipse transform="matrix(0.6428 -0.766 0.766 0.6428 3.7798 182.201)" class="st1" cx="197.3" cy="87" rx="2.2" ry="2.2"/>
		<path class="st1" d="M183.4,100.3c-0.1,0.1-0.1,0.2,0,0.3l3.1,2.6c0.1,0.1,0.2,0.1,0.3,0l8.7-10.4c0.1-0.1,0.1-0.2,0-0.3l-3.1-2.6
			c-0.1-0.1-0.2-0.1-0.3,0L183.4,100.3z M188.5,98.6l-1.6,1.9c-0.3,0.3-0.7,0.3-1,0.1s-0.3-0.7-0.1-1l1.6-1.9c0.3-0.3,0.7-0.3,1-0.1
			C188.6,98,188.7,98.4,188.5,98.6z M193,93.2l-1.6,1.9c-0.3,0.3-0.7,0.3-1,0.1s-0.3-0.7-0.1-1l1.6-1.9c0.3-0.3,0.7-0.3,1-0.1
			C193.3,92.4,193.3,92.9,193,93.2z"/>
		<path class="st1" d="M186.7,84.6c0.2,0.1,0.2,0.4,0,0.6l-8.9,10.6c-0.1,0.2-0.4,0.2-0.6,0l-1.5-1.3l-9.4,11.3l12.6,10.5l9.4-11.3
			l-0.6-0.5c-0.2-0.1-0.2-0.4,0-0.6l8.9-10.6c0.1-0.2,0.4-0.2,0.6,0l0.7,0.6l11.9-14.2l-12.6-10.5l-11.9,14.2L186.7,84.6z
			 M178.4,96.7c-0.2-0.1-0.2-0.4,0-0.6l8.9-10.6c0.1-0.2,0.4-0.2,0.6,0l1.2,1c0.2,0.1,0.2,0.4,0,0.6l-8.9,10.6
			c-0.1,0.2-0.4,0.2-0.6,0L178.4,96.7z M180.7,98.6c-0.2-0.1-0.2-0.4,0-0.6l8.9-10.6c0.1-0.2,0.4-0.2,0.6,0l1.2,1
			c0.2,0.1,0.2,0.4,0,0.6l-8.9,10.6c-0.1,0.2-0.4,0.2-0.6,0L180.7,98.6z M181.8,103.9l-1.9,2.2l2.2,1.9l-1.8,2.1l-2.2-1.9l-1.9,2.2
			l-2.1-1.8l1.9-2.2l-2.2-1.9l1.8-2.1l2.2,1.9l1.9-2.2L181.8,103.9z M197.7,82.5c-0.1-0.1-0.1-0.2,0-0.3l3.4-4.1
			c0.1-0.1,0.2-0.1,0.3,0l4.1,3.4c0.1,0.1,0.1,0.2,0,0.3l-3.4,4.1c-0.1,0.1-0.2,0.1-0.3,0L197.7,82.5z M193.5,87.5
			c-0.1-0.1-0.1-0.2,0-0.3l3.4-4.1c0.1-0.1,0.2-0.1,0.3,0l4.1,3.4c0.1,0.1,0.1,0.2,0,0.3l-3.4,4.1c-0.1,0.1-0.2,0.1-0.3,0
			L193.5,87.5z M192.8,89.4l3.1,2.6c0.4,0.3,0.4,0.8,0.1,1.1l-8.7,10.4c-0.3,0.4-0.8,0.4-1.1,0.1l-3.1-2.6c-0.4-0.3-0.4-0.8-0.1-1.1
			l8.7-10.4C192,89.1,192.5,89.1,192.8,89.4z"/>
		<path class="st1" d="M194.8,65.8l-32.1,38.3c-0.3,0.3-0.3,0.8,0.1,1.1l15.9,13.3c0.3,0.3,0.8,0.3,1.1-0.1l32.1-38.3
			c0.3-0.3,0.3-0.8-0.1-1.1L196,65.7C195.7,65.5,195.1,65.5,194.8,65.8z M210.1,79.3c0.2,0.2,0.3,0.6,0.1,0.8l-30.8,36.7
			c-0.2,0.2-0.6,0.3-0.8,0.1l-12.6-10.5c-0.2-0.2-0.3-0.6-0.1-0.8l30.8-36.7c0.2-0.2,0.6-0.3,0.8-0.1L210.1,79.3z"/>
	</g>
</g>
<path class="st0" d="M314.9,191.5c-0.7-0.4-1.5-0.7-2.1-1l0,0c-2.2-1.9-5.2-2.4-7.8-1.6l-0.8-0.6c-1.5-1.3-3.9-0.9-5.4,0.8l-0.6,0.8
	c-1.5,1.8-1.4,4.2,0.1,5.5l0.9,0.8c-0.1,0.2,0,0.4,0,0.6l-13.6,16.2c-0.2,0.1-0.3,0.1-0.6,0.1l-1-0.8c-1.5-1.3-3.9-0.9-5.4,0.8
	l-0.6,0.8c-1.5,1.8-1.4,4.2,0.1,5.5l0.8,0.6c-0.3,2.7,0.6,5.5,2.9,7.4l0,0c0.4,0.6,0.8,1.2,1.3,1.9c5.9,8.1,11.1,13.6,16.5,10.4
	c2.6-1.6,1.7-7.2-1.5-13.4c1.6,0.1,3.4-0.6,4.5-2c1.5-1.8,1.7-4.3,0.6-6.4l4-4.7c2.1,0.7,4.6,0.1,6.2-1.7c1.2-1.4,1.6-3.1,1.1-4.8
	c6.7,2.2,12.4,2,13.5-0.8C330.2,200.1,323.8,196,314.9,191.5z M283,219.6l1.9-2.2l1.6,1.3l0.2,2l-2,0.2L283,219.6L283,219.6z
	 M287,223.9l-1.3,1.6l-2.1-1.8l1.3-1.6l2-0.2L287,223.9z M291.5,223l-1.8,2.1l-1.6-1.3l-0.2-2l2-0.2
	C289.9,221.7,291.5,223,291.5,223z M289.7,220.6l-2.1,0.2l-0.1-2l1.3-1.6l2.1,1.8L289.7,220.6L289.7,220.6z M300.7,222.2
	c-1.3,1.5-3.5,1.7-5.1,0.4c-1.5-1.3-1.7-3.5-0.4-5.1s3.5-1.7,5.1-0.4C301.7,218.4,301.9,220.7,300.7,222.2z M295.7,212.4l-1.5,1.8
	l-1.1-1l1.5-1.8L295.7,212.4z M300.3,206.9l-1.1-1l2.3-1.6L300.3,206.9z M311,209.9c-1.3,1.5-3.5,1.7-5.1,0.4
	c-1.5-1.3-1.7-3.5-0.4-5.1s3.5-1.7,5.1-0.4C312.1,206.1,312.3,208.3,311,209.9z M306.3,201.2c-0.6,0.8-1.7,0.8-2.4,0.2
	c-0.8-0.6-0.8-1.7-0.2-2.4c0.6-0.8,1.7-0.8,2.4-0.2C306.8,199.5,306.9,200.4,306.3,201.2z M312,200.7c-0.6,0.8-1.7,0.8-2.4,0.2
	c-0.7-0.6-0.8-1.7-0.2-2.4c0.6-0.8,1.7-0.8,2.4-0.2C312.5,198.9,312.7,199.9,312,200.7z M305.8,195.4c-0.6,0.8-1.7,0.8-2.4,0.2
	c-0.8-0.6-0.8-1.7-0.2-2.4c0.6-0.8,1.7-0.8,2.4-0.2C306.3,193.5,306.4,194.7,305.8,195.4z M311.6,194.9c-0.6,0.8-1.7,0.8-2.4,0.2
	c-0.8-0.6-0.8-1.7-0.2-2.4c0.6-0.7,1.7-0.8,2.4-0.2C312.2,193.1,312.2,194.2,311.6,194.9z"/>
<path class="st0" d="M242.6,278.2c0-0.1,0.1-0.2,0-0.3c-0.1-0.3-0.6-0.5-1.2-0.2c-3.2,1.6-6.1,4.2-8.2,7.5c-0.3,0.5-0.2,1.2,0.3,1.5
	l-12,14.3c-0.4-0.5-1-0.5-1.5-0.1c-2.9,2.7-4.8,5.9-5.9,9.4c-0.2,0.5,0,1.1,0.4,1.1c0.1,0,0.2,0.1,0.3,0c-0.6,3.8,0.7,7.9,3.9,10.6
	c4.8,4,12,3.4,16.1-1.4c1.7-2.1,2.6-4.5,2.7-6.9l11.4-13.6c2.4-0.5,4.7-1.8,6.3-3.8c4-4.8,3.4-12-1.4-16.1
	C250.5,277.5,246.3,276.8,242.6,278.2z M230.3,310.3l-2,2.4l2.4,2l-1.9,2.3l-2.4-2l-2,2.4l-2.3-1.9l2-2.4l-2.4-2l1.9-2.3l2.4,2
	l2-2.4L230.3,310.3z M235.1,304.5l-0.1,2.6c0,0.4-0.4,0.7-0.7,0.7c-0.4,0-0.7-0.4-0.7-0.7l0.1-2.6c0-0.4,0.4-0.7,0.7-0.7
	C234.8,303.8,235.2,304.1,235.1,304.5z M238.9,300l-0.1,2.6c0,0.4-0.4,0.7-0.7,0.7c-0.4,0-0.7-0.4-0.7-0.7l0.1-2.6
	c0-0.4,0.4-0.7,0.7-0.7C238.6,299.3,239,299.7,238.9,300z M244.5,293.9c-0.7,0.8-2,1-2.8,0.2c-0.8-0.7-1-2-0.2-2.8
	c0.7-0.8,2-1,2.8-0.2C245.1,291.7,245.3,292.9,244.5,293.9z M251,292.5c-0.7,0.8-2,1-2.8,0.2c-0.8-0.7-1-2-0.2-2.8
	c0.7-0.8,2-1,2.8-0.2C251.6,290.4,251.7,291.7,251,292.5z M244.8,287.3c-0.7,0.8-2,1-2.8,0.2s-1-2-0.2-2.8c0.7-0.8,2-1,2.8-0.2
	C245.4,285.2,245.5,286.5,244.8,287.3z M251.2,285.9c-0.7,0.8-2,1-2.8,0.2s-1-2-0.2-2.8c0.7-0.8,2-1,2.8-0.2
	C251.8,283.8,252,285.1,251.2,285.9z"/>
<path class="st0" d="M86.4,172c0,0,0.5,1.3,0.2,1.8l-1.5,0.1c0,0-2.5,7.3-6.1,11.6c-3.6,4.3-10.4,8-10.4,8l0.2,1.5
	c-0.5,0.4-1.8,0.2-1.8,0.2c-3.4,9.2,21.2,37.5,27.9,27.1l-2.3-10.8l0,0c3.6-1.2,7-3.3,9.6-6.4c2.6-3.1,4.2-6.8,4.7-10.6l0,0l11,0.4
	C127.1,186.4,95,167,86.4,172z M73.7,205c-1.2-1-1.5-2.9-0.4-4.2c1.1-1.3,2.9-1.5,4.2-0.4s1.5,2.9,0.4,4.2
	C76.9,205.9,74.9,206,73.7,205z M89.5,209.4c-1.3,1.6-3.8,1.9-5.5,0.5c-1.7-1.4-1.9-3.8-0.5-5.5c1.3-1.6,3.8-1.9,5.5-0.5
	C90.7,205.3,90.8,207.8,89.5,209.4z M96.1,203.8c-0.6,0.7-1.4,0.9-1.9,0.5c-0.5-0.4-0.5-1.3,0.1-2c0.6-0.7,1.4-0.9,1.9-0.5
	C96.7,202.3,96.7,203.1,96.1,203.8z M88.7,176.1c0.2-0.5,0.9-0.6,1.7-0.4c0.7,0.2,1.2,0.9,1,1.4s-0.9,0.6-1.7,0.4
	C89,177.3,88.5,176.6,88.7,176.1z M89.8,179.8c0.3-0.8,1.4-1,2.5-0.6c1.1,0.4,1.7,1.3,1.5,2.1c-0.3,0.8-1.4,1-2.5,0.6
	C90.2,181.4,89.6,180.5,89.8,179.8z M93.3,182.8c0.3-0.8,1.4-1,2.5-0.6c1.1,0.4,1.7,1.3,1.5,2.1c-0.3,0.8-1.4,1-2.5,0.6
	C93.8,184.5,93,183.5,93.3,182.8z M100.1,199c-0.6,0.7-1.4,0.9-1.9,0.5c-0.5-0.4-0.5-1.3,0.1-2c0.6-0.7,1.4-0.9,1.9-0.5
	S100.7,198.3,100.1,199z M103.8,191c-1,1.2-2.9,1.5-4.2,0.4c-1.3-1.1-1.5-2.9-0.4-4.2c1.1-1.3,2.9-1.5,4.2-0.4
	C104.7,187.8,104.8,189.7,103.8,191z M101.5,182.7c-0.3,0.8-1.4,1-2.5,0.6c-1.1-0.4-1.7-1.3-1.5-2.1c0.3-0.8,1.4-1,2.5-0.6
	C101.1,181,101.8,182,101.5,182.7z M98.1,179.6c-0.3,0.8-1.4,1-2.5,0.6c-1.1-0.4-1.7-1.3-1.5-2.1c0.3-0.8,1.4-1,2.5-0.6
	C97.8,178,98.4,178.9,98.1,179.6z M95.5,175.6c-0.2,0.5-0.9,0.6-1.7,0.4c-0.7-0.2-1.2-0.9-1-1.4c0.2-0.5,0.9-0.6,1.7-0.4
	C95.3,174.4,95.7,175,95.5,175.6z"/>
</svg>
