<?xml version="1.0" encoding="utf-8"?>
<!-- Generator: Adobe Illustrator 20.1.0, SVG Export Plug-In . SVG Version: 6.00 Build 0)  -->
<svg version="1.1" id="Layer_1" opacity="0.2" xmlns="http://www.w3.org/2000/svg" xmlns:xlink="http://www.w3.org/1999/xlink"
	 x="0px" y="0px" viewBox="0 0 350 350" style="enable-background:new 0 0 350 350;" xml:space="preserve">
<style type="text/css">
	.st0{fill:none;stroke:#010101;stroke-miterlimit:10;}
	.st1{fill:none;stroke:#010101;stroke-width:0.75;stroke-miterlimit:10;}
	.st2{fill:none;stroke:#000000;stroke-miterlimit:10;}
</style>
<path class="st0" d="M295.3,22.1c-1.8-0.6-5.8,3.2-5.8,3.2s0.1,0.1,0.2,0.1c-5.6-0.4-11.2,1.7-15.1,6.3c-3.8,4.5-5,10.4-3.5,15.9
	c-0.1-0.1-0.1-0.1-0.1-0.1s-3,4.7-2.1,6.3c7.9,14.5,29.5,21.2,31.7,19.8c0.1-0.1,0.1-0.2,0.2-0.2c0.7-0.8-0.7-2.9-3.4-5.5
	c1.6-4.1,3.9-7.9,6.8-11.4c2.9-3.4,6.2-6.3,10-8.7c3,2.1,5.2,3.2,5.9,2.3c0.1-0.1,0.1-0.2,0.2-0.2C321.3,47.4,310.9,27.4,295.3,22.1
	z M273.3,56.7c-1.5-1.2-1.6-3.3-0.4-4.8s3.3-1.6,4.8-0.4c1.5,1.2,1.6,3.3,0.4,4.8C276.8,57.7,274.7,57.9,273.3,56.7z M289.1,56.5
	l-1.8,2.1l2.1,1.8l-1.7,2l-2.1-1.8l-1.8,2.1l-2.1-1.7l1.8-2.1l-2.1-1.8l1.7-2.1l2.1,1.8l1.8-2.1L289.1,56.5L289.1,56.5z M300.8,56.3
	c-0.7-1-1.3-2.9-1.9-4.6c1.7,0.4,3.7,0.5,4.8,1.1C303,54.1,302,55.3,300.8,56.3z M291.5,39.2c0.5,0.4,0.5,1.1,0.1,1.5l-5.1,6.1
	c-0.4,0.5-1.1,0.5-1.5,0.1l-6.2-5.2c-0.5-0.4-0.5-1.1-0.1-1.5l5.1-6.1c0.4-0.5,1.1-0.5,1.5-0.1L291.5,39.2z M298,36.4
	c-0.6,0.8-1.8,0.9-2.5,0.2s-0.8-1.7-0.1-2.5s1.8-0.9,2.5-0.3C298.5,34.6,298.6,35.7,298,36.4z M303.9,35.9c-0.6,0.8-1.7,0.8-2.5,0.1
	c-0.8-0.6-0.8-1.7-0.2-2.4c0.6-0.8,1.8-0.9,2.5-0.3C304.4,34.1,304.5,35.2,303.9,35.9z M297.4,30.5c-0.6,0.8-1.7,0.8-2.5,0.1
	s-0.9-1.8-0.3-2.5c0.6-0.8,1.8-0.9,2.5-0.2C298,28.6,298,29.8,297.4,30.5z M303.4,30c-0.6,0.8-1.8,0.9-2.5,0.2s-0.8-1.7-0.1-2.5
	c0.6-0.8,1.8-0.9,2.5-0.3C303.8,28.2,303.9,29.3,303.4,30z"/>
<path class="st0" d="M67.8,25.1c-1.4-0.2-2.8-0.3-4.3,0.2c-0.3,0-0.6,0.2-0.8,0.3c-0.6-0.7-2.1-0.6-3.4,0.2c-1.3,0.8-2.2,2-2,2.8
	c-7.6,4.6-13.5,11.8-16.9,20.1c-0.9-0.1-1.9,0.9-2.4,2.4s-0.3,3,0.4,3.4c-0.1,0.2-0.1,0.6-0.1,0.8c-0.1,0.9,0,1.9,0.1,2.8
	c0.2,2.7,3.8,7.6,9.2,12.1c6.5,5.5,13.2,8.4,14.9,6.4s-2.3-8-8.8-13.5h0.1c1.6,0.1,2.7,0.8,4.7,1.2c3.3,0.6,6.4-1.7,7-4.9
	c0.6-3.3-1.7-6.4-4.9-6.9c-1.9-0.3-2.8,0.4-4.5,0c1.8-3.6,4.4-6.6,7.5-9c0.6,1.6,0.1,2.5,0.7,4.4c1.1,3.2,4.5,4.7,7.6,3.7
	c3.2-1.1,4.7-4.5,3.6-7.7c-0.7-1.9-1.6-2.9-2-4.4l0,0c6.5,5.5,13.1,8.3,14.8,6.3c1.7-2-2.3-8-8.9-13.6
	C75.2,28.3,70.8,25.7,67.8,25.1z M49.6,58.9c-1.3,1.6-3.7,1.7-5.2,0.5s-1.7-3.7-0.5-5.2s3.7-1.7,5.2-0.5S51,57.3,49.6,58.9z
	 M61.1,54.9l1.7,1.4l-1.5,1.8l1.8,1.5l-1.5,1.6l-1.8-1.5l-1.5,1.8l-1.7-1.4l1.5-1.8l-1.8-1.5l1.4-1.7l1.8,1.5L61.1,54.9z M57.8,46.1
	c-0.4,0.5-1.3,0.6-1.8,0.2s-0.6-1.3-0.2-1.8c0.4-0.5,1.3-0.6,1.8-0.2S58.2,45.6,57.8,46.1z M63.2,38.3c0.6-0.8,1.8-0.9,2.5-0.2
	s0.9,1.8,0.2,2.5c-0.6,0.8-1.8,0.9-2.5,0.2S62.6,39.1,63.2,38.3z M72.9,48.5c-1.3,1.5-3.6,1.8-5.2,0.5c-1.5-1.3-1.8-3.6-0.5-5.2
	c1.3-1.5,3.6-1.8,5.2-0.5C74.1,44.7,74.3,46.9,72.9,48.5z M60.5,34.2L60.5,34.2c-0.7-0.1-1.3-0.8-1.1-1.6c0.2-1.2,0.7-2.2,1.4-3.1
	c0.5-0.6,1.4-0.6,1.9-0.1l0,0c0.5,0.5,0.5,1.2,0.1,1.5c-0.6,0.7-0.9,1.4-1.1,2.2C61.6,33.8,61.1,34.2,60.5,34.2z M68.1,35.3
	c-1,1.1-2.7,1.3-3.8,0.3c-1.1-1-1.3-2.7-0.3-3.8c1-1.1,2.7-1.3,3.8-0.3C68.9,32.5,69.1,34.2,68.1,35.3z M70.8,28.6
	c0.5,0.6,0.5,1.4,0,1.9l0,0c-0.5,0.5-1.2,0.4-1.6,0c-0.5-0.6-1.4-1-2.2-1.3c-0.5-0.2-1-0.7-0.8-1.3l0,0c0.2-0.7,0.9-1.2,1.6-1
	C68.9,27.2,69.9,27.7,70.8,28.6z"/>
<path class="st0" d="M165.6,162.6c-7.7,9.2-14.5,23-5.5,30.1c7.3,5.9,16.8,4.3,18.7,0.4c1-1.9,0.2-4.4-1.8-7
	c-0.3-1.8,0.1-4.2,1.4-6.7c1.9-3.1,3.7-5.3,6-7.2c2.2-1.7,4.5-2.5,6.3-2.5c2.8,1.5,5.4,1.8,7.1,0.5c3.5-2.6,3.4-12.2-3.7-18.3
	C185.5,144.3,173.3,153.3,165.6,162.6z M169.3,185.3c-1.8,2.1-5,2.4-7.2,0.6c-2.1-1.8-2.4-5-0.6-7.2c1.8-2.1,5-2.4,7.2-0.6
	C170.8,180,171.2,183.1,169.3,185.3z M175.8,159.2l1.2-3.9c0.1-0.2,0.3-0.3,0.5-0.3c0.2,0.1,0.3,0.3,0.3,0.5l-1.2,3.9
	c-0.1,0.2-0.3,0.3-0.5,0.3C175.9,159.5,175.6,159.3,175.8,159.2z M185.4,166.7c-0.8,1-2.2,1.1-3.2,0.3s-1.1-2.2-0.3-3.2
	s2.2-1.1,3.2-0.3C186,164.2,186.2,165.7,185.4,166.7z M186.6,160.7c-0.8,1-2.2,1.1-3.2,0.3s-1.1-2.2-0.3-3.2s2.2-1.1,3.2-0.3
	C187.2,158.2,187.4,159.8,186.6,160.7z M188.3,155.4c-0.8,1-2.2,1.1-3.2,0.3s-1.1-2.2-0.3-3.2s2.2-1.1,3.2-0.3
	C189.1,152.9,189.2,154.4,188.3,155.4z"/>
<path class="st0" d="M71.7,267c-2.5-2.1-5.8-2.6-8.7-1.8c-0.3-0.4-0.8-0.6-1.3-0.5c-3.4,0.8-6.1,2.7-7.6,5.6c0,0,0,0-0.1,0.1
	c-2.7-0.5-5.6,0.6-7.5,2.9l-6.1,7.3c-1.9,2.2-2.3,5.2-1.5,7.9c0,0,0,0-0.1,0.1c-2.7,2.1-4,5-4.2,8.5c0,0.5,0.3,1,0.7,1.2
	c-0.3,3,0.8,6.2,3.3,8.2c0.9,0.8,1.9,1.3,2.9,1.7c1.1,1.5,2.5,2.9,4.2,4.3c5.4,4.5,11.1,6.5,12.9,4.3c1.7-2-0.9-7-5.9-11.5l0,0
	c3.1-4.3,5.2-4.1,5.2-4.1c9.6,4.9,20.2,9.4,22.4,6.7c2.2-2.6-4.1-12.3-10.5-20.9c0,0-0.5-2,3.2-5.8l0,0c5.2,4.1,10.6,5.9,12.3,3.8
	s-1.2-7.5-6.5-12c-1.7-1.4-3.3-2.5-5-3.4C73.3,268.6,72.5,267.7,71.7,267z M49.1,297.6l-2,2.4l2.4,2l-1.9,2.3l-2.4-2l-2,2.4
	l-2.3-1.9l2-2.4l-2.4-2l1.9-2.3l2.4,2l2-2.4L49.1,297.6z M55.8,287.2c0.7-0.8,2-1,2.8-0.2c0.8,0.7,1,2,0.2,2.8c-0.7,0.8-2,1-2.8,0.2
	C55.2,289.4,55.1,288.1,55.8,287.2z M67.9,297.3c-0.9,1.1-2.4,1.2-3.5,0.3c-1.1-0.9-1.2-2.4-0.3-3.5s2.4-1.2,3.5-0.3
	C68.6,294.7,68.8,296.3,67.9,297.3z M65.2,281.9c-0.7,0.8-2,1-2.8,0.2c-0.8-0.7-1-2-0.2-2.8s2-1,2.8-0.2
	C65.7,279.8,65.9,281,65.2,281.9z M70.5,281.6c-0.7,0.8-2,1-2.8,0.2c-0.8-0.7-1-2-0.2-2.8c0.8-0.8,2-1,2.8-0.2
	C71.1,279.5,71.2,280.7,70.5,281.6z M65.2,276.1c-0.5,0.6-1.4,0.7-2,0.2s-0.7-1.4-0.2-2s1.4-0.7,2-0.2
	C65.7,274.5,65.7,275.5,65.2,276.1z M70.1,275.6c-0.5,0.6-1.4,0.7-2,0.2s-0.7-1.4-0.2-2s1.4-0.7,2-0.2S70.5,275,70.1,275.6z
	 M64.9,271.2c-0.5,0.6-1.4,0.7-2,0.2s-0.7-1.4-0.2-2s1.4-0.7,2-0.2C65.2,269.7,65.3,270.7,64.9,271.2z M69.6,270.8
	c-0.5,0.6-1.4,0.7-2,0.2s-0.7-1.4-0.2-2s1.4-0.7,2-0.2C70.1,269.3,70.2,270.2,69.6,270.8z"/>
<g>
	<path class="st1" d="M184.8,53"/>
	<g>
		<ellipse transform="matrix(0.6428 -0.766 0.766 0.6428 33.5156 160.7231)" class="st1" cx="189.1" cy="44.4" rx="2.2" ry="2.2"/>
		<ellipse transform="matrix(0.6428 -0.766 0.766 0.6428 28.0582 159.2319)" class="st1" cx="184.8" cy="49.5" rx="2.2" ry="2.2"/>
		<path class="st1" d="M170.9,62.8c-0.1,0.1-0.1,0.2,0,0.3l3.1,2.6c0.1,0.1,0.2,0.1,0.3,0l8.7-10.4c0.1-0.1,0.1-0.2,0-0.3l-3.1-2.6
			c-0.1-0.1-0.2-0.1-0.3,0L170.9,62.8z M176,61.1l-1.6,1.9c-0.3,0.3-0.7,0.3-1,0.1s-0.3-0.7-0.1-1l1.6-1.9c0.3-0.3,0.7-0.3,1-0.1
			C176.1,60.5,176.2,60.9,176,61.1z M180.5,55.7l-1.6,1.9c-0.3,0.3-0.7,0.3-1,0.1s-0.3-0.7-0.1-1l1.6-1.9c0.3-0.3,0.7-0.3,1-0.1
			C180.8,54.9,180.8,55.4,180.5,55.7z"/>
		<path class="st1" d="M174.2,47.1c0.2,0.1,0.2,0.4,0,0.6l-8.9,10.6c-0.1,0.2-0.4,0.2-0.6,0l-1.5-1.3l-9.4,11.3l12.6,10.5l9.4-11.3
			l-0.6-0.5c-0.2-0.1-0.2-0.4,0-0.6l8.9-10.6c0.1-0.2,0.4-0.2,0.6,0l0.7,0.6l11.9-14.2l-12.6-10.5l-11.9,14.2L174.2,47.1z
			 M165.9,59.2c-0.2-0.1-0.2-0.4,0-0.6l8.9-10.6c0.1-0.2,0.4-0.2,0.6,0l1.2,1c0.2,0.1,0.2,0.4,0,0.6l-8.9,10.6
			c-0.1,0.2-0.4,0.2-0.6,0L165.9,59.2z M168.2,61.1c-0.2-0.1-0.2-0.4,0-0.6l8.9-10.6c0.1-0.2,0.4-0.2,0.6,0l1.2,1
			c0.2,0.1,0.2,0.4,0,0.6L170,62.1c-0.1,0.2-0.4,0.2-0.6,0L168.2,61.1z M169.3,66.4l-1.9,2.2l2.2,1.9l-1.8,2.1l-2.2-1.9l-1.9,2.2
			l-2.1-1.8l1.9-2.2l-2.2-1.9l1.8-2.1l2.2,1.9l1.9-2.2L169.3,66.4z M185.2,45c-0.1-0.1-0.1-0.2,0-0.3l3.4-4.1c0.1-0.1,0.2-0.1,0.3,0
			L193,44c0.1,0.1,0.1,0.2,0,0.3l-3.4,4.1c-0.1,0.1-0.2,0.1-0.3,0L185.2,45z M181,50c-0.1-0.1-0.1-0.2,0-0.3l3.4-4.1
			c0.1-0.1,0.2-0.1,0.3,0l4.1,3.4c0.1,0.1,0.1,0.2,0,0.3l-3.4,4.1c-0.1,0.1-0.2,0.1-0.3,0L181,50z M180.3,51.9l3.1,2.6
			c0.4,0.3,0.4,0.8,0.1,1.1L174.8,66c-0.3,0.4-0.8,0.4-1.1,0.1l-3.1-2.6c-0.4-0.3-0.4-0.8-0.1-1.1l8.7-10.4
			C179.5,51.6,180,51.6,180.3,51.9z"/>
		<path class="st1" d="M182.3,28.3l-32.1,38.3c-0.3,0.3-0.3,0.8,0.1,1.1L166.2,81c0.3,0.3,0.8,0.3,1.1-0.1l32.1-38.3
			c0.3-0.3,0.3-0.8-0.1-1.1l-15.8-13.3C183.2,28,182.6,28,182.3,28.3z M197.6,41.8c0.2,0.2,0.3,0.6,0.1,0.8l-30.8,36.7
			c-0.2,0.2-0.6,0.3-0.8,0.1l-12.6-10.5c-0.2-0.2-0.3-0.6-0.1-0.8l30.8-36.7c0.2-0.2,0.6-0.3,0.8-0.1L197.6,41.8z"/>
	</g>
</g>
<path class="st0" d="M306.8,146.6c-0.7-0.4-1.5-0.7-2.1-1l0,0c-2.2-1.9-5.2-2.4-7.8-1.6l-0.8-0.6c-1.5-1.3-3.9-0.9-5.4,0.8l-0.6,0.8
	c-1.5,1.8-1.4,4.2,0.1,5.5l0.9,0.8c-0.1,0.2,0,0.4,0,0.6l-13.6,16.2c-0.2,0.1-0.3,0.1-0.6,0.1l-1-0.8c-1.5-1.3-3.9-0.9-5.4,0.8
	l-0.6,0.8c-1.5,1.8-1.4,4.2,0.1,5.5l0.8,0.6c-0.3,2.7,0.6,5.5,2.9,7.4l0,0c0.4,0.6,0.8,1.2,1.3,1.9c5.9,8.1,11.1,13.6,16.5,10.4
	c2.6-1.6,1.7-7.2-1.5-13.4c1.6,0.1,3.4-0.6,4.5-2c1.5-1.8,1.7-4.3,0.6-6.4l4-4.7c2.1,0.7,4.6,0.1,6.2-1.7c1.2-1.4,1.6-3.1,1.1-4.8
	c6.7,2.2,12.4,2,13.5-0.8C322.1,155.2,315.7,151.1,306.8,146.6z M274.9,174.7l1.9-2.2l1.6,1.3l0.2,2l-2,0.2L274.9,174.7L274.9,174.7
	z M278.9,179l-1.3,1.6l-2.1-1.8l1.3-1.6l2-0.2L278.9,179z M283.4,178.1l-1.8,2.1l-1.6-1.3l-0.2-2l2-0.2
	C281.8,176.8,283.4,178.1,283.4,178.1z M281.6,175.7l-2.1,0.2l-0.1-2l1.3-1.6l2.1,1.8L281.6,175.7L281.6,175.7z M292.6,177.3
	c-1.3,1.5-3.5,1.7-5.1,0.4c-1.5-1.3-1.7-3.5-0.4-5.1s3.5-1.7,5.1-0.4C293.6,173.5,293.8,175.8,292.6,177.3z M287.6,167.5l-1.5,1.8
	l-1.1-1l1.5-1.8L287.6,167.5z M292.2,162l-1.1-1l2.3-1.6L292.2,162z M302.9,165c-1.3,1.5-3.5,1.7-5.1,0.4c-1.5-1.3-1.7-3.5-0.4-5.1
	s3.5-1.7,5.1-0.4C304,161.2,304.2,163.4,302.9,165z M298.2,156.3c-0.6,0.8-1.7,0.8-2.4,0.2c-0.8-0.6-0.8-1.7-0.2-2.4
	c0.6-0.8,1.7-0.8,2.4-0.2C298.7,154.6,298.8,155.5,298.2,156.3z M303.9,155.8c-0.6,0.8-1.7,0.8-2.4,0.2c-0.7-0.6-0.8-1.7-0.2-2.4
	c0.6-0.8,1.7-0.8,2.4-0.2C304.4,154,304.6,155,303.9,155.8z M297.7,150.5c-0.6,0.8-1.7,0.8-2.4,0.2c-0.8-0.6-0.8-1.7-0.2-2.4
	c0.6-0.8,1.7-0.8,2.4-0.2C298.2,148.6,298.3,149.8,297.7,150.5z M303.5,150c-0.6,0.8-1.7,0.8-2.4,0.2c-0.8-0.6-0.8-1.7-0.2-2.4
	c0.6-0.7,1.7-0.8,2.4-0.2C304.1,148.2,304.1,149.3,303.5,150z"/>
<path class="st0" d="M178.6,261.2c0-0.1,0.1-0.2,0-0.3c-0.1-0.3-0.6-0.5-1.2-0.2c-3.2,1.6-6.1,4.2-8.2,7.5c-0.3,0.5-0.2,1.2,0.3,1.5
	l-12,14.3c-0.4-0.5-1-0.5-1.5-0.1c-2.9,2.7-4.8,5.9-5.9,9.4c-0.2,0.5,0,1.1,0.4,1.1c0.1,0,0.2,0.1,0.3,0c-0.6,3.8,0.7,7.9,3.9,10.6
	c4.8,4,12,3.4,16.1-1.4c1.7-2.1,2.6-4.5,2.7-6.9l11.4-13.6c2.4-0.5,4.7-1.8,6.3-3.8c4-4.8,3.4-12-1.4-16.1
	C186.5,260.5,182.3,259.8,178.6,261.2z M166.3,293.3l-2,2.4l2.4,2l-1.9,2.3l-2.4-2l-2,2.4l-2.3-1.9l2-2.4l-2.4-2l1.9-2.3l2.4,2
	l2-2.4L166.3,293.3z M171.1,287.5l-0.1,2.6c0,0.4-0.4,0.7-0.7,0.7c-0.4,0-0.7-0.4-0.7-0.7l0.1-2.6c0-0.4,0.4-0.7,0.7-0.7
	C170.8,286.8,171.2,287.1,171.1,287.5z M174.9,283l-0.1,2.6c0,0.4-0.4,0.7-0.7,0.7c-0.4,0-0.7-0.4-0.7-0.7l0.1-2.6
	c0-0.4,0.4-0.7,0.7-0.7C174.6,282.3,175,282.7,174.9,283z M180.5,276.9c-0.7,0.8-2,1-2.8,0.2c-0.8-0.7-1-2-0.2-2.8
	c0.7-0.8,2-1,2.8-0.2C181.1,274.7,181.3,275.9,180.5,276.9z M187,275.5c-0.7,0.8-2,1-2.8,0.2c-0.8-0.7-1-2-0.2-2.8
	c0.7-0.8,2-1,2.8-0.2C187.6,273.4,187.7,274.7,187,275.5z M180.8,270.3c-0.7,0.8-2,1-2.8,0.2s-1-2-0.2-2.8c0.7-0.8,2-1,2.8-0.2
	C181.4,268.2,181.5,269.5,180.8,270.3z M187.2,268.9c-0.7,0.8-2,1-2.8,0.2s-1-2-0.2-2.8c0.7-0.8,2-1,2.8-0.2
	C187.8,266.8,188,268.1,187.2,268.9z"/>
<path class="st0" d="M60.6,144.3c0,0,0.5,1.3,0.2,1.8l-1.5,0.1c0,0-2.5,7.3-6.1,11.6s-10.4,8-10.4,8l0.2,1.5
	c-0.5,0.4-1.8,0.2-1.8,0.2c-3.4,9.2,21.2,37.5,27.9,27.1l-2.3-10.8l0,0c3.6-1.2,7-3.3,9.6-6.4c2.6-3.1,4.2-6.8,4.7-10.6l0,0l11,0.4
	C101.3,158.7,69.2,139.3,60.6,144.3z M47.9,177.3c-1.2-1-1.5-2.9-0.4-4.2s2.9-1.5,4.2-0.4s1.5,2.9,0.4,4.2
	C51.1,178.2,49.1,178.3,47.9,177.3z M63.7,181.7c-1.3,1.6-3.8,1.9-5.5,0.5s-1.9-3.8-0.5-5.5c1.3-1.6,3.8-1.9,5.5-0.5
	C64.9,177.6,65,180.1,63.7,181.7z M70.3,176.1c-0.6,0.7-1.4,0.9-1.9,0.5s-0.5-1.3,0.1-2s1.4-0.9,1.9-0.5
	C70.9,174.6,70.9,175.4,70.3,176.1z M62.9,148.4c0.2-0.5,0.9-0.6,1.7-0.4c0.7,0.2,1.2,0.9,1,1.4s-0.9,0.6-1.7,0.4
	C63.2,149.6,62.7,148.9,62.9,148.4z M64,152.1c0.3-0.8,1.4-1,2.5-0.6s1.7,1.3,1.5,2.1c-0.3,0.8-1.4,1-2.5,0.6
	C64.4,153.7,63.8,152.8,64,152.1z M67.5,155.1c0.3-0.8,1.4-1,2.5-0.6s1.7,1.3,1.5,2.1c-0.3,0.8-1.4,1-2.5,0.6
	C68,156.8,67.2,155.8,67.5,155.1z M74.3,171.3c-0.6,0.7-1.4,0.9-1.9,0.5s-0.5-1.3,0.1-2s1.4-0.9,1.9-0.5S74.9,170.6,74.3,171.3z
	 M78,163.3c-1,1.2-2.9,1.5-4.2,0.4c-1.3-1.1-1.5-2.9-0.4-4.2s2.9-1.5,4.2-0.4C78.9,160.1,79,162,78,163.3z M75.7,155
	c-0.3,0.8-1.4,1-2.5,0.6s-1.7-1.3-1.5-2.1c0.3-0.8,1.4-1,2.5-0.6C75.3,153.3,76,154.3,75.7,155z M72.3,151.9c-0.3,0.8-1.4,1-2.5,0.6
	s-1.7-1.3-1.5-2.1c0.3-0.8,1.4-1,2.5-0.6C72,150.3,72.6,151.2,72.3,151.9z M69.7,147.9c-0.2,0.5-0.9,0.6-1.7,0.4
	c-0.7-0.2-1.2-0.9-1-1.4s0.9-0.6,1.7-0.4C69.5,146.7,69.9,147.3,69.7,147.9z"/>
<path class="st2" d="M305,268.1c0,0-5-3-9.8-3.6c-0.3,0-0.7,0-1.2,0.1c0.1-0.1,0.2-0.1,0.2-0.2c0-0.1,0-0.2,0-0.3
	c0-0.2-0.5-0.3-1.1-0.1c-1.8,0.4-3.7,1.5-5.1,3.3c-0.5,0.6-0.7,1.3-0.5,1.5c0.1,0.1,0.2,0.2,0.3,0.2c0,0,0,0,0,0
	c-1.2,1.5,0.7,2.9-5.6,10.4c-6.3,7.5-8,5.9-9.3,7.3c0,0,0,0,0,0c-0.1-0.1-0.2-0.2-0.3-0.3c-0.2-0.2-0.8,0.2-1.4,0.8
	c-1.5,1.7-2.3,3.8-2.4,5.6c0,0.6,0.1,1.1,0.3,1c0.1,0,0.2-0.1,0.3-0.1c0.1,0,0.1-0.1,0.2-0.2c0,0.4,0,0.8,0.2,1.2
	c1.4,4.5,5.2,9,5.2,9c3.3,4.6,13.2,16,17.9,12.2c0.5-0.4,0.9-1,1.2-1.6l0,0c2.9-5-2.4-9.9,6.1-19.9l0-0.1c8.4-10,14.1-5.7,18.5-9.4
	l0,0c0.6-0.4,1-0.9,1.4-1.5C323.1,278.3,310.1,270.5,305,268.1z M288,269C288,269,288,269,288,269L288,269C288,269,288,269,288,269z
	 M289.9,280.3c-0.5-0.4-0.5-1.2,0.1-1.9l0,0c0.5-0.6,1.3-0.8,1.8-0.4l0,0c0.5,0.4,0.5,1.2-0.1,1.9l0,0
	C291.3,280.5,290.5,280.7,289.9,280.3L289.9,280.3z M282.8,288.8c-0.5-0.4-0.5-1.2,0.1-1.9l0,0c0.5-0.6,1.3-0.8,1.8-0.4l0,0
	c0.5,0.4,0.5,1.2-0.1,1.9l0,0C284.1,289.1,283.3,289.2,282.8,288.8L282.8,288.8z M292.4,293.2l-1.7,2l2,1.7
	c-0.2,0.4-0.4,0.8-0.7,1.1s-0.6,0.6-1,0.9l-2-1.7l-1.7,2c-0.4-0.2-0.8-0.4-1.1-0.7c-0.3-0.3-0.6-0.6-0.9-1l0,0l1.7-2l-2-1.7l0,0
	c0.2-0.4,0.4-0.8,0.7-1.2c0.3-0.4,0.7-0.7,1-0.9l0,0l2,1.7l1.7-2l0,0c0.4,0.2,0.8,0.4,1.1,0.7C291.9,292.5,292.1,292.8,292.4,293.2z
	 M292.9,296.2l-1.3-1.1l1.1-1.3c0.2,0.4,0.2,0.8,0.3,1.2C293,295.4,293,295.8,292.9,296.2z M289.2,299.4c-0.4,0-0.8,0-1.2-0.1
	l1.1-1.3l1.3,1.1C290.1,299.3,289.7,299.4,289.2,299.4z M284.9,294.5l1.3,1.1l-1.1,1.3c-0.2-0.4-0.3-0.8-0.3-1.2
	C284.8,295.3,284.8,294.9,284.9,294.5z M288.5,291.3c0.4,0,0.8,0,1.3,0.1l-1.1,1.3l-1.3-1.1C287.7,291.4,288.1,291.3,288.5,291.3z
	 M273,286.8L273,286.8C273,286.9,273,286.9,273,286.8C273,286.9,273,286.8,273,286.8z M279.8,297.2c-1.2,1.5-3.4,1.7-4.9,0.4
	c-1.5-1.2-1.7-3.4-0.4-4.9c1.2-1.5,3.4-1.7,4.9-0.4C280.8,293.5,281,295.7,279.8,297.2z M289.4,285.1c-0.9,1.1-2.6,1.2-3.7,0.3
	c-1.1-0.9-1.2-2.6-0.3-3.7c0.9-1.1,2.6-1.2,3.7-0.3C290.1,282.3,290.3,284,289.4,285.1z M301.5,285.7c-1.2,1.5-3.4,1.7-4.9,0.4
	c-1.5-1.2-1.7-3.4-0.4-4.9c1.2-1.5,3.4-1.7,4.9-0.4C302.5,282.1,302.7,284.2,301.5,285.7z M295.5,275.9c-0.6,0.7-1.7,0.8-2.4,0.2
	c-0.7-0.6-0.8-1.7-0.2-2.4c0.6-0.7,1.7-0.8,2.4-0.2C296,274.1,296.1,275.2,295.5,275.9z M301.2,275.4c-0.6,0.7-1.7,0.8-2.4,0.2
	c-0.7-0.6-0.8-1.7-0.2-2.4c0.6-0.7,1.7-0.8,2.4-0.2C301.7,273.6,301.8,274.7,301.2,275.4z M295,270.2c-0.6,0.7-1.7,0.8-2.4,0.2
	c-0.7-0.6-0.8-1.7-0.2-2.4c0.6-0.7,1.7-0.8,2.4-0.2C295.5,268.4,295.6,269.5,295,270.2z M300.7,269.7c-0.6,0.7-1.7,0.8-2.4,0.2
	c-0.7-0.6-0.8-1.7-0.2-2.4c0.6-0.7,1.7-0.8,2.4-0.2C301.2,267.9,301.3,269,300.7,269.7z"/>
</svg>
