<svg xmlns="http://www.w3.org/2000/svg" xmlns:xlink="http://www.w3.org/1999/xlink" style="display: none">
<symbol id="logo" viewBox="15 15 60 60">
<path d="M70.7 36.2c0-3.3-1.7-6.1-4.2-7.8 0.1-0.5-0.1-1-0.5-1.3 -2.8-2.1-6-2.9-9.2-2.2 0 0 0 0-0.1 0 -1.4-2.4-4-3.9-7-3.9h-9.5c-2.9 0-5.5 1.6-7 3.9 0 0 0 0-0.1 0C30 24.1 26.8 24.9 24 27c-0.4 0.3-0.6 0.9-0.5 1.3 -2.5 1.7-4.2 4.6-4.2 7.8 0 1.2 0.2 2.3 0.6 3.3 -0.4 1.8-0.6 3.8-0.6 6 0 7 2.2 12.7 5 12.7 2.6 0 4.8-5.2 5-11.9l0 0c5.3-0.4 6.5 1.3 6.5 1.3 2.4 10.5 5.8 21.5 9.3 21.5 3.4 0 6.8-11 9.3-21.5 0 0 1.2-1.7 6.5-1.3l0 0c0.2 6.6 2.3 11.9 5 11.9 2.7 0 5-5.7 5-12.7 0-2.2-0.2-4.2-0.6-6C70.5 38.4 70.7 37.3 70.7 36.2zM32.8 38.6h-3.1v3.1h-3v-3.1h-3.1v-3h3.1v-3.1h3v3.1h3.1V38.6zM45 37.1c1.1 0 2 0.9 2 2s-0.9 2-2 2c-1.1 0-2-0.9-2-2C43 38 43.9 37.1 45 37.1zM45 52.8c-1.4 0-2.5-1.1-2.5-2.5 0-1.4 1.1-2.5 2.5-2.5 1.4 0 2.5 1.1 2.5 2.5C47.5 51.6 46.4 52.8 45 52.8zM55.1 40.8c-1.1 0-2-0.9-2-2 0-1.1 0.9-2 2-2s2 0.9 2 2C57.1 39.9 56.2 40.8 55.1 40.8zM58.9 44.7c-1.1 0-2-0.9-2-2 0-1.1 0.9-2 2-2 1.1 0 2 0.9 2 2C60.9 43.8 60 44.7 58.9 44.7zM59.7 37.1c-0.8 0-1.4-0.6-1.4-1.4 0-0.8 0.6-1.4 1.4-1.4 0.8 0 1.4 0.6 1.4 1.4C61.1 36.4 60.5 37.1 59.7 37.1zM63.1 40.5c-0.8 0-1.4-0.6-1.4-1.4s0.6-1.4 1.4-1.4c0.8 0 1.4 0.6 1.4 1.4S63.9 40.5 63.1 40.5zM63.1 33.7c-0.8 0-1.4-0.6-1.4-1.4 0-0.8 0.6-1.4 1.4-1.4 0.8 0 1.4 0.6 1.4 1.4C64.5 33 63.9 33.7 63.1 33.7zM66.5 37.1c-0.8 0-1.4-0.6-1.4-1.4 0-0.8 0.6-1.4 1.4-1.4 0.8 0 1.4 0.6 1.4 1.4C67.9 36.4 67.3 37.1 66.5 37.1z"/>
</symbol>
</svg>